<svg width="970" height="350" viewBox="0 0 970 350" fill="none" xmlns="http://www.w3.org/2000/svg">
<rect width="970" height="350" fill="white"/>
<rect width="350" height="350" fill="#FF0C0C"/>
<mask id="mask0_250_37" style="mask-type:alpha" maskUnits="userSpaceOnUse" x="60" y="60" width="230" height="230">
<rect x="60" y="60" width="230" height="230" rx="80" fill="#C4C4C4"/>
</mask>
<g mask="url(#mask0_250_37)">
<rect x="60" y="60" width="230" height="64" fill="white"/>
<path d="M60 143H226C261.346 143 290 171.654 290 207V207H124C88.6538 207 60 178.346 60 143V143Z" fill="white"/>
<rect x="60" y="226" width="230" height="64" fill="white"/>
</g>
<path d="M449.6 148.9C442.667 148.9 436.6 147.433 431.4 144.5C426.267 141.5 422.3 137.267 419.5 131.8C416.767 126.333 415.4 119.967 415.4 112.7C415.4 105.433 416.767 99.1 419.5 93.7C422.3 88.2333 426.267 84.0333 431.4 81.1C436.6 78.1 442.667 76.6 449.6 76.6C454.333 76.6 458.8 77.3333 463 78.8C467.2 80.2667 470.733 82.3333 473.6 85L469.3 94.4C466.1 91.8667 462.933 90.0333 459.8 88.9C456.667 87.7 453.333 87.1 449.8 87.1C443 87.1 437.733 89.3 434 93.7C430.333 98.1 428.5 104.433 428.5 112.7C428.5 121.033 430.333 127.4 434 131.8C437.733 136.2 443 138.4 449.8 138.4C453.333 138.4 456.667 137.833 459.8 136.7C462.933 135.5 466.1 133.633 469.3 131.1L473.6 140.5C470.733 143.167 467.2 145.233 463 146.7C458.8 148.167 454.333 148.9 449.6 148.9ZM544.473 148H530.473L518.373 125.5C517.24 123.367 515.84 121.867 514.173 121C512.507 120.133 510.407 119.7 507.873 119.7H498.073V148H485.373V77.5H516.573C524.573 77.5 530.64 79.3 534.773 82.9C538.973 86.4333 541.073 91.5667 541.073 98.3C541.073 103.7 539.54 108.167 536.473 111.7C533.473 115.167 529.207 117.433 523.673 118.5C527.407 119.5 530.407 122.133 532.673 126.4L544.473 148ZM514.773 109.8C519.64 109.8 523.207 108.9 525.473 107.1C527.74 105.233 528.873 102.4 528.873 98.6C528.873 94.7333 527.74 91.9333 525.473 90.2C523.207 88.4 519.64 87.5 514.773 87.5H497.973V109.8H514.773ZM554.905 148V77.5H602.105V87.7H567.505V107.1H600.105V117.2H567.505V137.8H602.105V148H554.905ZM666.52 148L659.42 131.5H625.12L618.02 148H605.02L636.92 77.5H647.42L679.32 148H666.52ZM629.32 121.5H655.12L642.22 91.5L629.32 121.5ZM694.747 148V88.1H671.747V77.5H730.647V88.1H707.647V148H694.747ZM739.475 148V77.5H786.675V87.7H752.075V107.1H784.675V117.2H752.075V137.8H786.675V148H739.475Z" fill="black"/>
<path d="M454.38 283.26C446.913 283.26 439.727 282.28 432.82 280.32C425.913 278.267 420.173 275.467 415.6 271.92L422.6 256.38C432.12 263.007 442.807 266.32 454.66 266.32C460.82 266.32 465.533 265.34 468.8 263.38C472.16 261.327 473.84 258.527 473.84 254.98C473.84 251.807 472.3 249.333 469.22 247.56C466.233 245.787 460.867 244.06 453.12 242.38C444.44 240.607 437.487 238.46 432.26 235.94C427.127 233.42 423.347 230.34 420.92 226.7C418.587 222.967 417.42 218.393 417.42 212.98C417.42 207.007 419.053 201.687 422.32 197.02C425.68 192.353 430.347 188.713 436.32 186.1C442.293 183.393 449.2 182.04 457.04 182.04C464.04 182.04 470.76 183.067 477.2 185.12C483.733 187.173 488.913 189.927 492.74 193.38L485.74 208.92C476.687 202.293 467.167 198.98 457.18 198.98C451.487 198.98 447.007 200.1 443.74 202.34C440.473 204.487 438.84 207.473 438.84 211.3C438.84 213.54 439.447 215.407 440.66 216.9C441.967 218.3 444.067 219.56 446.96 220.68C449.947 221.8 454.147 222.967 459.56 224.18C472.253 226.98 481.353 230.573 486.86 234.96C492.46 239.347 495.26 245.413 495.26 253.16C495.26 262.493 491.667 269.867 484.48 275.28C477.293 280.6 467.26 283.26 454.38 283.26ZM552.851 283.26C539.038 283.26 528.491 279.713 521.211 272.62C514.025 265.433 510.431 254.98 510.431 241.26V183.3H531.851V242.24C531.851 250.08 533.625 256.053 537.171 260.16C540.811 264.267 546.038 266.32 552.851 266.32C559.665 266.32 564.891 264.267 568.531 260.16C572.171 255.96 573.991 249.987 573.991 242.24V183.3H595.411V241.26C595.411 254.887 591.771 265.293 584.491 272.48C577.211 279.667 566.665 283.26 552.851 283.26ZM614.488 183.3H659.848C670.581 183.3 678.934 186.007 684.908 191.42C690.881 196.833 693.868 204.393 693.868 214.1C693.868 223.807 690.881 231.367 684.908 236.78C678.934 242.193 670.581 244.9 659.848 244.9H636.328V282H614.488V183.3ZM657.048 228.38C667.968 228.38 673.428 223.667 673.428 214.24C673.428 209.387 672.074 205.793 669.368 203.46C666.661 201.127 662.554 199.96 657.048 199.96H636.328V228.38H657.048ZM708.003 282V183.3H776.043V200.24H729.283V223.34H773.243V240.28H729.283V265.06H776.043V282H708.003ZM876.671 282H852.871L835.791 250.5C834.391 248.073 832.711 246.347 830.751 245.32C828.791 244.2 826.318 243.64 823.331 243.64H812.551V282H790.991V183.3H836.351C847.925 183.3 856.651 185.867 862.531 191C868.505 196.04 871.491 203.367 871.491 212.98C871.491 220.447 869.391 226.7 865.191 231.74C861.085 236.78 855.251 240.093 847.691 241.68C852.825 242.987 857.165 246.673 860.711 252.74L876.671 282ZM833.131 227.12C839.385 227.12 843.911 226.047 846.711 223.9C849.511 221.66 850.911 218.207 850.911 213.54C850.911 208.78 849.511 205.327 846.711 203.18C843.911 201.033 839.385 199.96 833.131 199.96H812.271V227.12H833.131Z" fill="black"/>
<rect x="324.5" y="9.5" width="636" height="331" stroke="#FF0C0C" stroke-width="19"/>
</svg>
